<svg id="Warstwa_1" data-name="Warstwa 1" xmlns="http://www.w3.org/2000/svg" viewBox="0 0 128 48"><title>mbank_logo_mass</title><rect x="71.68" width="22.398" height="48" fill="#ae0000"/><rect x="37.105" width="34.574" height="48" fill="#ff8600"/><rect x="94.084" width="2.56" height="48" fill="#0065b1"/><rect width="33.266" height="48" fill="#e90a0a"/><rect x="96.64" width="31.36" height="48" fill="#008f20"/><rect x="33.266" width="3.839" height="48" fill="#26221e"/><path d="M39.755,25.247V33.92H35.362v-8c0-2.45-1.1-3.577-2.873-3.577-1.971,0-3.351,1.268-3.351,3.971v7.6H24.745v-8c0-2.45-1.041-3.577-2.872-3.577-1.944,0-3.323,1.268-3.323,3.971v7.6H14.157V22.149h-1.69V18.77h5.21l.225,2.338a6.018,6.018,0,0,1,5.21-2.563A5.656,5.656,0,0,1,28.1,21.023a6.81,6.81,0,0,1,5.463-2.478c3.6,0,6.2,2.084,6.2,6.7" fill="#fff"/><path d="M60.762,28.542c0,3.407-2.7,5.379-7.885,5.379H43.19V17.926H41.106V14.209H52.314c4.928,0,7.462,2.055,7.462,5.125a4.739,4.739,0,0,1-2.619,4.336,4.868,4.868,0,0,1,3.605,4.872m-13.038-10.9V22.29h4.027c2.224,0,3.435-.788,3.435-2.337s-1.211-2.309-3.435-2.309Zm8.42,10.419c0-1.661-1.24-2.45-3.6-2.45H47.724v4.872h4.815c2.365,0,3.6-.732,3.6-2.422" fill="#fff"/><path d="M78.614,18.77V33.92h-4.2V32.174a5.827,5.827,0,0,1-4.731,1.972c-4.28,0-7.575-3.041-7.575-7.8s3.3-7.8,7.575-7.8a5.818,5.818,0,0,1,4.533,1.83V18.77Zm-4.307,7.575c0-2.618-1.691-4.195-3.858-4.195a3.844,3.844,0,0,0-3.887,4.2,3.844,3.844,0,0,0,3.887,4.2c2.167,0,3.858-1.576,3.858-4.2" fill="#fff"/><path d="M97.876,25.247V33.92H93.483v-8c0-2.45-1.127-3.577-3.07-3.577-2.112,0-3.632,1.3-3.632,4.084v7.49H82.388V22.149H80.7V18.77h5.21l.225,2.366A6.364,6.364,0,0,1,91.6,18.545c3.576,0,6.28,2.084,6.28,6.7" fill="#fff"/><polygon points="116.405 33.92 111.421 33.92 107.14 27.359 105.112 27.359 105.112 33.92 100.72 33.92 100.72 13.026 105.112 13.026 105.112 24.008 107.14 24.008 111.196 18.77 116.095 18.77 110.942 25.416 116.405 33.92" fill="#fff"/></svg>